<svg width="1280" height="256" viewBox="0 0 1280 256" fill="none" xmlns="http://www.w3.org/2000/svg">
<rect width="1280" height="256" fill="white"/>
<path d="M17.6 183C16.5333 183 15.68 182.68 15.04 182.04C14.4 181.293 14.08 180.387 14.08 179.32V74.84C14.08 73.6667 14.4 72.76 15.04 72.12C15.68 71.3733 16.5333 71 17.6 71H53.76C69.8667 71 81.4933 74.6267 88.64 81.88C95.7867 89.0267 99.4667 99.8533 99.68 114.36C99.7867 117.453 99.84 121.613 99.84 126.84C99.84 132.067 99.7867 136.28 99.68 139.48C99.4667 149.613 97.8133 157.88 94.72 164.28C91.7333 170.573 86.9867 175.267 80.48 178.36C73.9733 181.453 65.3333 183 54.56 183H17.6ZM53.76 169.72C61.2267 169.72 67.1467 168.707 71.52 166.68C76 164.547 79.2 161.293 81.12 156.92C83.1467 152.44 84.2667 146.413 84.48 138.84C84.6933 132.44 84.8 128.44 84.8 126.84C84.8 125.133 84.6933 121.187 84.48 115C84.2667 104.333 81.7067 96.5467 76.8 91.64C72 86.6267 64.0533 84.12 52.96 84.12H29.12V169.72H53.76ZM153.356 183C152.29 183 151.436 182.68 150.796 182.04C150.156 181.293 149.836 180.387 149.836 179.32V74.84C149.836 73.6667 150.156 72.76 150.796 72.12C151.436 71.3733 152.29 71 153.356 71H192.396C204.556 71 214.05 73.88 220.876 79.64C227.81 85.2933 231.276 93.56 231.276 104.44C231.276 112.547 229.25 119.213 225.196 124.44C221.143 129.667 215.49 133.293 208.236 135.32L232.876 178.04C233.196 178.68 233.356 179.267 233.356 179.8C233.356 180.653 233.036 181.4 232.396 182.04C231.756 182.68 231.01 183 230.156 183H223.116C221.516 183 220.236 182.627 219.276 181.88C218.423 181.133 217.623 180.067 216.876 178.68L193.356 137.72H164.876V179.32C164.876 180.387 164.503 181.293 163.756 182.04C163.01 182.68 162.103 183 161.036 183H153.356ZM191.756 124.6C207.863 124.6 215.916 117.827 215.916 104.28C215.916 90.7333 207.863 83.96 191.756 83.96H164.876V124.6H191.756ZM283.644 183C282.577 183 281.724 182.68 281.084 182.04C280.444 181.293 280.124 180.387 280.124 179.32V74.84C280.124 73.6667 280.444 72.76 281.084 72.12C281.724 71.3733 282.577 71 283.644 71H349.404C350.577 71 351.484 71.3733 352.124 72.12C352.87 72.76 353.244 73.6667 353.244 74.84V80.6C353.244 81.6667 352.87 82.52 352.124 83.16C351.484 83.8 350.577 84.12 349.404 84.12H294.844V119.8H345.884C347.057 119.8 347.964 120.173 348.604 120.92C349.35 121.56 349.724 122.467 349.724 123.64V129.08C349.724 130.147 349.35 131.053 348.604 131.8C347.964 132.44 347.057 132.76 345.884 132.76H294.844V169.72H350.684C351.857 169.72 352.764 170.093 353.404 170.84C354.15 171.48 354.524 172.387 354.524 173.56V179.32C354.524 180.387 354.15 181.293 353.404 182.04C352.657 182.68 351.75 183 350.684 183H283.644ZM441.985 184.6C428.118 184.6 417.345 180.76 409.665 173.08C401.985 165.4 397.878 155 397.345 141.88C397.238 138.68 397.185 133.667 397.185 126.84C397.185 119.907 397.238 114.893 397.345 111.8C397.772 98.7867 401.825 88.4933 409.505 80.92C417.292 73.24 428.118 69.4 441.985 69.4C451.372 69.4 459.318 71.1067 465.825 74.52C472.332 77.9333 477.238 82.04 480.545 86.84C483.852 91.5333 485.612 95.9067 485.825 99.96V100.28C485.825 101.133 485.452 101.88 484.705 102.52C484.065 103.053 483.318 103.32 482.465 103.32H473.505C472.545 103.32 471.798 103.107 471.265 102.68C470.838 102.253 470.412 101.453 469.985 100.28C468.278 95.2667 465.132 91.0533 460.545 87.64C455.958 84.2267 449.772 82.52 441.985 82.52C433.025 82.52 425.985 84.9733 420.865 89.88C415.745 94.7867 413.025 102.36 412.705 112.6C412.598 115.693 412.545 120.44 412.545 126.84C412.545 133.133 412.598 137.88 412.705 141.08C413.025 151.427 415.745 159.053 420.865 163.96C425.985 168.867 433.025 171.32 441.985 171.32C451.052 171.32 458.305 168.867 463.745 163.96C469.185 158.947 471.905 151.48 471.905 141.56V134.68H447.425C446.358 134.68 445.452 134.307 444.705 133.56C444.065 132.813 443.745 131.907 443.745 130.84V126.04C443.745 124.973 444.065 124.067 444.705 123.32C445.452 122.573 446.358 122.2 447.425 122.2H483.265C484.438 122.2 485.345 122.573 485.985 123.32C486.732 123.96 487.105 124.867 487.105 126.04V141.24C487.105 149.88 485.292 157.507 481.665 164.12C478.145 170.627 472.972 175.693 466.145 179.32C459.318 182.84 451.265 184.6 441.985 184.6ZM539.219 183C538.152 183 537.299 182.68 536.659 182.04C536.019 181.293 535.699 180.387 535.699 179.32V74.84C535.699 73.6667 536.019 72.76 536.659 72.12C537.299 71.3733 538.152 71 539.219 71H604.979C606.152 71 607.059 71.3733 607.699 72.12C608.445 72.76 608.819 73.6667 608.819 74.84V80.6C608.819 81.6667 608.445 82.52 607.699 83.16C607.059 83.8 606.152 84.12 604.979 84.12H550.419V119.8H601.459C602.632 119.8 603.539 120.173 604.179 120.92C604.925 121.56 605.299 122.467 605.299 123.64V129.08C605.299 130.147 604.925 131.053 604.179 131.8C603.539 132.44 602.632 132.76 601.459 132.76H550.419V169.72H606.259C607.432 169.72 608.339 170.093 608.979 170.84C609.725 171.48 610.099 172.387 610.099 173.56V179.32C610.099 180.387 609.725 181.293 608.979 182.04C608.232 182.68 607.325 183 606.259 183H539.219ZM661.694 183C660.627 183 659.774 182.68 659.134 182.04C658.494 181.293 658.174 180.387 658.174 179.32V74.84C658.174 73.6667 658.494 72.76 659.134 72.12C659.774 71.3733 660.627 71 661.694 71H700.734C712.894 71 722.387 73.88 729.214 79.64C736.147 85.2933 739.614 93.56 739.614 104.44C739.614 112.547 737.587 119.213 733.534 124.44C729.48 129.667 723.827 133.293 716.574 135.32L741.214 178.04C741.534 178.68 741.694 179.267 741.694 179.8C741.694 180.653 741.374 181.4 740.734 182.04C740.094 182.68 739.347 183 738.494 183H731.454C729.854 183 728.574 182.627 727.614 181.88C726.76 181.133 725.96 180.067 725.214 178.68L701.694 137.72H673.214V179.32C673.214 180.387 672.84 181.293 672.094 182.04C671.347 182.68 670.44 183 669.374 183H661.694ZM700.094 124.6C716.2 124.6 724.254 117.827 724.254 104.28C724.254 90.7333 716.2 83.96 700.094 83.96H673.214V124.6H700.094ZM788.941 183C787.875 183 786.968 182.68 786.221 182.04C785.581 181.293 785.261 180.387 785.261 179.32V168.28C785.261 167.213 785.581 166.307 786.221 165.56C786.968 164.813 787.875 164.44 788.941 164.44H799.981C801.048 164.44 801.901 164.813 802.541 165.56C803.288 166.307 803.661 167.213 803.661 168.28V179.32C803.661 180.387 803.288 181.293 802.541 182.04C801.901 182.68 801.048 183 799.981 183H788.941ZM856.491 183C855.425 183 854.518 182.68 853.771 182.04C853.131 181.293 852.811 180.387 852.811 179.32V74.84C852.811 73.6667 853.131 72.76 853.771 72.12C854.411 71.3733 855.318 71 856.491 71H864.011C865.931 71 867.265 71.8 868.011 73.4L902.091 138.84L936.491 73.4C937.345 71.8 938.625 71 940.331 71H947.851C949.025 71 949.931 71.3733 950.571 72.12C951.211 72.76 951.531 73.6667 951.531 74.84V179.32C951.531 180.387 951.158 181.293 950.411 182.04C949.771 182.68 948.918 183 947.851 183H940.491C939.425 183 938.571 182.68 937.931 182.04C937.291 181.293 936.971 180.387 936.971 179.32V99.8L909.611 152.76C908.545 155 906.838 156.12 904.491 156.12H899.691C897.451 156.12 895.745 155 894.571 152.76L867.371 99.8V179.32C867.371 180.387 866.998 181.293 866.251 182.04C865.611 182.68 864.758 183 863.691 183H856.491ZM1008.81 183C1007.74 183 1006.89 182.68 1006.25 182.04C1005.61 181.293 1005.29 180.387 1005.29 179.32V74.84C1005.29 73.6667 1005.61 72.76 1006.25 72.12C1006.89 71.3733 1007.74 71 1008.81 71H1074.57C1075.74 71 1076.65 71.3733 1077.29 72.12C1078.03 72.76 1078.41 73.6667 1078.41 74.84V80.6C1078.41 81.6667 1078.03 82.52 1077.29 83.16C1076.65 83.8 1075.74 84.12 1074.57 84.12H1020.01V119.8H1071.05C1072.22 119.8 1073.13 120.173 1073.77 120.92C1074.51 121.56 1074.89 122.467 1074.89 123.64V129.08C1074.89 130.147 1074.51 131.053 1073.77 131.8C1073.13 132.44 1072.22 132.76 1071.05 132.76H1020.01V169.72H1075.85C1077.02 169.72 1077.93 170.093 1078.57 170.84C1079.31 171.48 1079.69 172.387 1079.69 173.56V179.32C1079.69 180.387 1079.31 181.293 1078.57 182.04C1077.82 182.68 1076.91 183 1075.85 183H1008.81Z" fill="black"/>
</svg>
